<?xml version="1.0" encoding="UTF-8"?>
<svg width="100" height="100" viewBox="0 0 100 100" xmlns="http://www.w3.org/2000/svg">
  <defs>
    <pattern id="islamic-frame" width="100" height="100" patternUnits="userSpaceOnUse">
      <path fill="none" stroke="#c0a060" stroke-width="1" opacity="0.4" d="M0,0 L20,0 L25,5 L30,0 L70,0 L75,5 L80,0 L100,0 L100,20 L95,25 L100,30 L100,70 L95,75 L100,80 L100,100 L80,100 L75,95 L70,100 L30,100 L25,95 L20,100 L0,100 L0,80 L5,75 L0,70 L0,30 L5,25 L0,20 Z" />
      <path fill="none" stroke="#6b8e23" stroke-width="0.8" opacity="0.3" d="M10,10 L90,10 L90,90 L10,90 Z" />
      <circle cx="50" cy="50" r="35" fill="none" stroke="#3b6e75" stroke-width="0.8" opacity="0.2" />
      <path fill="none" stroke="#c0a060" stroke-width="0.8" opacity="0.3" d="M50,15 L85,50 L50,85 L15,50 Z" />
    </pattern>
  </defs>
  <rect width="100" height="100" fill="url(#islamic-frame)" />
</svg>
